{"title":"Mr.Right.2016.WEBRip.480p.x264.AAC-VYTO [P2PDL]","uid":14282016,"size":375068859,"categoryP":"video","categoryS":"movies","magnet":"?xt=urn:btih:225c7ddb8f8a02b4acf768c9fc294c38e62ab05c&amp;dn=Mr.Right.2016.WEBRip.480p.x264.AAC-VYTO+%5BP2PDL%5D&amp;tr=udp%3A%2F%2Ftracker.leechers-paradise.org%3A6969&amp;tr=udp%3A%2F%2Fzer0day.ch%3A1337&amp;tr=udp%3A%2F%2Fopen.demonii.com%3A1337&amp;tr=udp%3A%2F%2Ftracker.coppersurfer.tk%3A6969&amp;tr=udp%3A%2F%2Fexodus.desync.com%3A6969","seeders":21,"leechers":7,"uploader":"VYTOP2PDL","files":7,"time":1460369919,"description":"____    ____ ____    ____ .___________.  ______   \r\n     /   /      /   / |           | /  __    \r\n    /   /      /   /  `---|  |----`|  |  |  | \r\n        /     _    _/       |  |     |  |  |  | \r\n       /        |  |         |  |     |  `--'  | \r\n    __/         |__|         |__|      ______/  \r\n                                                  \r\nPresenting Small Encodes with quality for years!\r\n                                                                                                   \r\n                                                                                                   \r\n\r\n\r\nMr.Right.2016.WEBRip.480p.x264.AAC-VYTO\r\n\r\n\r\nGenre: Action, Comedy, Romance \nhttp://www.imdb.com/title/tt2091935/\r\n\r\n\r\nFormat                                   : MPEG-4\r\nFile size                                : 351 MiB\r\nDuration                                 : 1h 35mn\r\nOverall bit rate                         : 515 Kbps\r\n\r\nVideo\r\nFormat                                   : AVC\r\nBit rate                                 : 472 Kbps\r\nWidth                                    : 720 pixels\r\nHeight                                   : 304 pixels\r\nDisplay aspect ratio                     : 2.35:1\r\nFrame rate mode                          : Constant\r\nFrame rate                               : 23.976 (24000/1001) fps\r\nBit depth                                : 8 bits\r\nStream size                              : 322 MiB (92%)\r\nWriting library                          : x264\r\n\r\nAudio\r\nFormat                                   : AAC\r\nBit rate mode                            : Variable\r\nBit rate                                 : 40.0 Kbps\r\nChannel(s)                               : 2 channels\r\nChannel positions                        : Front: L R\r\nSampling rate                            : 48.0 KHz\r\nStream size                              : 27.3 MiB (8%)\r\nLanguage                                 : English\r\n\r\nSubtitle                                 : Yes (English)\r\n\r\nScreen Shots: (Click link to view)\r\n \nhttps://ititli.com/Xsd \nhttps://ititli.com/Xs0 \nhttps://ititli.com/XsA \nhttps://ititli.com/Xsl \nhttps://ititli.com/Xsm \nhttps://ititli.com/Xsx \nhttps://ititli.com/Xs7 \nhttps://ititli.com/XsC\r\n\r\n----------------------------------------------------------------------------------------------------\r\n\r\n\r\nEncoder Notes: Looking For Early Access To Anything You Can Provide WEBDL, DVDScr, DVDR, BluRay,\r\nDirect Audio, Music Releases and Seedboxes. If You Got anything to offer please contact us.\r\n\r\nSupport us by donating BC - 1FgwdzPsd1y25Gea8wP1qni35uGCtmkRCD\r\n\r\nFind us and join us!","torrent":{"xt":"urn:btih:225c7ddb8f8a02b4acf768c9fc294c38e62ab05c","amp;dn":"Mr.Right.2016.WEBRip.480p.x264.AAC-VYTO+%5BP2PDL%5D","amp;tr":["udp%3A%2F%2Ftracker.leechers-paradise.org%3A6969","udp%3A%2F%2Fzer0day.ch%3A1337","udp%3A%2F%2Fopen.demonii.com%3A1337","udp%3A%2F%2Ftracker.coppersurfer.tk%3A6969","udp%3A%2F%2Fexodus.desync.com%3A6969"],"infoHash":"225c7ddb8f8a02b4acf768c9fc294c38e62ab05c","infoHashBuffer":{"type":"Buffer","data":[34,92,125,219,143,138,2,180,172,247,104,201,252,41,76,56,230,42,176,92]},"announce":[],"urlList":[]}}